HIERARCHY
ROOT hip
{
	OFFSET 0.000000 0.000000 0.000000 
	CHANNELS 6 Xposition Yposition Zposition Xrotation Zrotation Yrotation
	JOINT abdomen
	{
		OFFSET 0.000000 3.402643 0.000000 
		CHANNELS 3 Xrotation Zrotation Yrotation
		JOINT chest
		{
			OFFSET 0.000000 8.438565 -0.680529 
			CHANNELS 3 Xrotation Zrotation Yrotation
			JOINT neck
			{
				OFFSET 0.000000 10.207942 -0.272212 
				CHANNELS 3 Xrotation Zrotation Yrotation
				JOINT head
				{
					OFFSET 0.000000 3.130431 0.000000 
					CHANNELS 3 Xrotation Zrotation Yrotation
					End Site
					{
						OFFSET 0.000000 3.130435 0.000000 
					}
				}
			}
			JOINT lCollar
			{
				OFFSET 3.470700 6.669187 -0.816635 
				CHANNELS 3 Yrotation Zrotation Xrotation
				JOINT lShldr
				{
					OFFSET 3.198488 0.000000 0.000000 
					CHANNELS 3 Zrotation Yrotation Xrotation
					JOINT lForeArm
					{
						OFFSET 10.139888 0.000000 0.000000 
						CHANNELS 3 Yrotation Zrotation Xrotation
						JOINT lHand
						{
							OFFSET 8.370511 0.000000 0.000000 
							CHANNELS 3 Zrotation Yrotation Xrotation
							End Site
							{
								OFFSET 4.083176 0.000000 0.000000 
							}
						}
					}
				}
			}
			JOINT rCollar
			{
				OFFSET -3.470700 6.669187 -0.816635 
				CHANNELS 3 Yrotation Zrotation Xrotation
				JOINT rShldr
				{
					OFFSET -3.198488 0.000000 0.000000 
					CHANNELS 3 Zrotation Yrotation Xrotation
					JOINT rForeArm
					{
						OFFSET -10.139888 0.000000 0.000000 
						CHANNELS 3 Yrotation Zrotation Xrotation
						JOINT rHand
						{
							OFFSET -8.370511 0.000000 0.000000 
							CHANNELS 3 Zrotation Yrotation Xrotation
							End Site
							{
								OFFSET -4.083176 0.000000 0.000000 
							}
						}
					}
				}
			}
		}
	}
	JOINT lThigh
	{
		OFFSET 5.308129 -1.633274 1.361059 
		CHANNELS 3 Xrotation Zrotation Yrotation
		JOINT lShin
		{
			OFFSET -2.041588 -20.007561 0.000000 
			CHANNELS 3 Xrotation Zrotation Yrotation
			JOINT lFoot
			{
				OFFSET 0.000000 -19.190928 -1.224953 
				CHANNELS 3 Xrotation Yrotation Zrotation
				End Site
				{
					OFFSET 0.000000 -2.449906 4.627600 
				}
			}
		}
	}
	JOINT rThigh
	{
		OFFSET -5.308129 -1.633274 1.361059 
		CHANNELS 3 Xrotation Zrotation Yrotation
		JOINT rShin
		{
			OFFSET 2.041588 -20.007561 0.000000 
			CHANNELS 3 Xrotation Zrotation Yrotation
			JOINT rFoot
			{
				OFFSET 0.000000 -19.190928 -1.224953 
				CHANNELS 3 Xrotation Yrotation Zrotation
				End Site
				{
					OFFSET 0.000000 -2.449906 4.627600 
				}
			}
		}
	}
}
MOTION
Frames: 14
Frame Time: 0.033333
0.111128 51.687111 -0.146313 12.343750 17.363281 -66.891617 32.220963 -27.056618 0.684989 -19.326172 10.839844 0.800781 51.063168 8.107644 2.471410 -77.744141 -10.078123 18.496092 2.000000 -2.000000 0.000000 -77.324219 2.099609 -38.525032 -52.149323 -1.610594 -2.005232 -8.488459 64.805550 -22.433084 -2.000000 2.000000 0.000000 81.660156 5.068359 -11.649696 49.324749 1.723030 -1.920444 5.797444 -69.478249 -12.171876 -34.017002 16.558050 9.491658 29.540722 -4.634218 -2.701843 -6.722151 1.538501 -9.448445 -21.688238 -11.444441 -12.710274 23.538757 4.686277 1.967133 -3.420793 -6.412373 12.844115 
0.249389 51.671364 -0.240184 13.095703 17.490236 -66.461906 32.923367 -27.600513 0.977417 -19.326172 10.839844 0.625000 51.063168 8.107644 2.471410 -77.382813 -9.013671 17.578127 2.000000 -2.000000 0.000000 -75.576172 -2.480469 -36.777340 -52.501163 -1.601413 -2.015546 -9.856796 65.153976 -24.380363 -2.000000 2.000000 0.000000 81.572266 8.613282 -11.521974 49.839951 1.416093 -2.192834 8.648314 -67.181313 -13.692580 -35.053696 16.900940 9.239913 30.236647 -4.492864 -2.880282 -7.210654 0.982367 -8.927241 -22.870352 -10.868754 -13.393364 23.893019 4.676928 2.169028 -3.136990 -6.755328 12.274343 
0.404603 51.647732 -0.299060 13.642579 17.597658 -66.266579 33.440754 -27.930016 1.263516 -19.140625 10.830078 0.488281 51.063168 8.107644 2.471410 -77.050781 -8.095702 16.718752 2.000000 -2.000000 0.000000 -73.671875 -7.050782 -35.205078 -52.853283 -1.583053 -2.036175 -10.896050 65.177559 -25.861824 -2.000000 2.000000 0.000000 81.337891 12.304688 -11.923828 51.071568 1.359870 -2.235219 10.916151 -66.369934 -15.389706 -35.914352 17.263292 9.021146 30.240013 -4.508073 -2.728754 -6.813673 0.747592 -9.109086 -23.168364 -10.786569 -14.616142 23.893019 4.676924 2.169028 -3.184655 -6.250785 11.304730 
0.550913 51.616211 -0.350357 14.023438 17.597658 -65.807587 34.014999 -28.404160 1.424886 -19.150391 10.654297 0.275243 51.063168 8.107644 2.471410 -76.884766 -6.992187 16.005859 2.000000 -2.000000 0.000000 -71.884766 -11.611329 -33.634777 -53.205132 -1.573872 -2.046489 -12.657763 65.340630 -27.988632 -2.000000 2.000000 0.000000 80.888672 16.191408 -13.014854 52.127113 1.322577 -2.266724 13.336792 -66.319313 -18.055496 -36.469994 17.282093 8.732102 30.590273 -4.483296 -2.712511 -6.903223 0.722423 -8.908890 -22.466187 -11.333747 -17.664373 23.377886 4.720508 2.105820 -2.414887 -6.721201 11.520490 
0.701389 51.576820 -0.405323 13.632813 17.275391 -65.817413 34.320866 -28.530537 1.679989 -18.798826 10.634766 0.167818 51.063168 8.107644 2.471410 -76.533203 -5.927734 15.439455 2.000000 -2.000000 0.000000 -70.458984 -15.830078 -32.942120 -53.568115 -1.694840 -2.107882 -13.073175 65.640541 -28.533007 -2.000000 2.000000 0.000000 80.253906 19.921873 -13.808594 53.182663 1.275533 -2.298796 16.024508 -66.368599 -21.129637 -36.327671 17.118912 8.828543 30.765242 -4.571287 -2.778472 -6.501376 0.423679 -8.903763 -20.972889 -12.387936 -21.642029 22.486303 4.764646 1.895230 -2.779693 -6.571033 11.003157 
0.827847 51.513802 -0.485519 12.851563 16.640625 -65.827278 34.368423 -28.682058 1.573537 -18.251955 10.791016 -0.048828 51.063168 8.107644 2.471410 -76.191406 -4.677733 15.341797 2.000000 -2.000000 0.000000 -68.750000 -19.794922 -32.376354 -54.084877 -1.546330 -2.077431 -16.550068 65.694733 -31.762497 -2.000000 2.000000 0.000000 79.902344 24.052734 -14.478440 54.221836 1.059242 -2.448458 18.315617 -66.788712 -23.714149 -35.641430 16.951145 8.807817 30.951866 -4.576430 -2.804884 -6.190179 0.285660 -8.817763 -19.781113 -13.596826 -23.891973 22.307549 4.812980 1.568555 -2.733577 -6.598108 10.591890 
0.927152 51.450768 -0.595798 12.060548 15.830078 -65.729759 34.435986 -28.826681 1.448696 -17.539064 10.742188 -0.263672 51.063168 8.107644 2.471410 -76.015625 -3.271484 15.351563 2.000000 -2.000000 0.000000 -66.787109 -23.837891 -31.943357 -54.791752 -1.348985 -2.216066 -19.315916 65.755249 -34.415684 -2.000000 2.000000 0.000000 79.335938 28.388668 -15.346918 55.277378 1.012196 -2.480522 21.116447 -66.904877 -26.964872 -34.840958 16.355501 9.076072 30.927483 -4.463387 -2.763784 -5.549654 -0.043679 -8.836818 -18.847069 -14.578914 -25.475359 22.837778 4.725634 2.082252 -2.264755 -6.435239 11.279804 
0.966604 51.379868 -0.753590 11.093750 15.009766 -65.612701 34.305763 -28.683168 1.152574 -16.806643 10.878907 -0.458984 51.063168 8.107644 2.471410 -75.703125 -2.021484 15.625000 2.000000 -2.000000 0.000000 -65.351563 -27.285156 -31.376949 -55.842987 -1.341600 -2.089375 -24.009718 65.965019 -38.083954 -2.000000 2.000000 0.000000 78.916016 32.343750 -16.152346 55.801388 1.112634 -2.357354 24.643345 -67.412895 -30.839096 -33.743565 16.147800 9.448144 31.115849 -4.454045 -2.787063 -5.567306 -0.431210 -8.644003 -17.839064 -15.276450 -26.521572 23.360086 4.709261 2.102907 -2.074064 -6.239506 11.434525 
1.002209 51.332600 -0.890314 10.126953 14.013672 -65.534744 34.000881 -28.565769 0.894122 -16.083984 10.996094 -0.623137 51.063168 8.107644 2.471410 -75.058594 -0.957031 15.996093 2.000000 -2.000000 0.000000 -64.550789 -30.517578 -30.781248 -57.261982 -1.494654 -2.197789 -30.959829 66.196732 -43.225590 -2.000000 2.000000 0.000000 78.525391 36.142582 -16.796877 56.315701 0.794194 -2.600730 27.035004 -67.280281 -33.829552 -32.570107 15.629138 9.737928 31.288639 -4.444043 -2.972824 -5.436344 -0.149439 -8.305335 -16.786055 -16.344206 -27.288643 23.906353 4.687389 2.017111 -2.073157 -6.381594 11.567778 
0.969116 51.261700 -1.063042 9.199219 13.017578 -65.387611 33.341873 -28.026775 1.010988 -15.722656 10.986328 -0.732422 51.063168 8.107644 2.471410 -73.906250 -0.097656 15.908207 2.000000 -2.000000 0.000000 -63.906250 -33.066402 -29.839310 -58.834499 -1.319170 -2.208026 -38.510769 65.547089 -49.113396 -2.000000 2.000000 0.000000 77.480469 39.218750 -18.011402 57.377155 0.836711 -2.490701 29.936832 -67.572746 -37.564053 -31.370054 15.307691 9.453362 30.765574 -4.571355 -2.768782 -4.963494 -0.073436 -8.014935 -15.438639 -17.056807 -27.913910 24.950851 4.628609 2.099762 -2.251398 -6.431408 11.745460 
0.877988 51.175041 -1.298341 7.900391 12.001954 -65.320236 32.500149 -27.501093 1.163642 -15.371093 10.966797 -0.662205 51.063168 8.107644 2.471410 -72.460938 0.419922 15.830151 2.000000 -2.000000 0.000000 -62.734371 -35.869141 -29.654161 -60.074860 -1.593281 -2.211592 -45.138149 64.004646 -54.700123 -2.000000 2.000000 0.000000 76.552734 41.835941 -19.277344 58.422665 0.769600 -2.514151 32.693306 -67.740669 -40.225349 -29.601723 14.945498 9.769526 30.397099 -4.591013 -2.752726 -4.941072 -0.142287 -7.916428 -14.384301 -17.799906 -28.544863 25.814760 4.598675 2.310197 -2.775341 -6.626593 12.164135 
0.760758 51.096260 -1.589220 6.777344 10.996094 -65.320396 31.442797 -26.842442 1.445189 -15.195313 10.947265 -0.449219 51.063168 8.107644 2.471410 -70.830078 0.947266 15.781253 2.000000 -2.000000 0.000000 -60.439457 -38.652344 -30.468750 -60.946079 -1.265217 -2.289402 -49.514912 61.455086 -58.710777 -2.000000 2.000000 0.000000 75.302734 44.423828 -20.830080 59.495148 0.912438 -2.447195 36.419395 -67.748520 -44.379372 -28.236067 14.604938 9.655451 29.541384 -4.634304 -2.683236 -4.343831 0.230789 -7.742617 -13.456338 -18.634939 -28.976727 26.539791 4.559797 2.224731 -3.317806 -6.922753 12.160600 
0.623276 51.025360 -1.940749 5.527344 9.970703 -65.467056 30.398470 -26.163847 1.696781 -15.019531 10.937500 -0.429688 51.063168 8.107644 2.471410 -68.857422 1.279297 15.634766 2.000000 -2.000000 0.000000 -57.861324 -41.269531 -31.637302 -61.825329 -1.207289 -2.302560 -53.642166 58.256439 -62.654343 -2.000000 2.000000 0.000000 73.681641 46.591801 -23.147202 60.731815 0.925460 -2.671341 39.044445 -67.268517 -47.881134 -26.346590 14.003187 9.783840 28.821022 -4.556288 -2.595164 -4.272002 0.221962 -7.924600 -12.372892 -19.262089 -29.625761 27.621925 4.510965 2.447781 -3.833894 -7.294701 12.271029 
0.498178 50.922947 -2.278859 4.072266 9.101563 -65.625008 29.164566 -25.517630 2.003377 -14.843750 10.917969 -0.212994 51.063168 8.107644 2.471410 -67.070313 1.650391 15.351563 2.000000 -2.000000 0.000000 -54.550781 -43.935547 -33.815372 -62.531441 -1.379831 -2.410070 -56.641388 54.802105 -65.900665 -2.000000 2.000000 0.000000 71.914063 48.583984 -25.119627 61.775291 0.707583 -2.625311 41.964813 -66.914955 -51.129021 -24.611361 13.675426 9.526032 27.942633 -4.610036 -2.525787 -3.697504 0.915392 -7.749701 -11.455279 -20.127930 -30.081453 28.494976 4.465569 2.342770 -4.319197 -7.858928 12.712986 
